<mxfile host="app.diagrams.net" modified="2021-12-19T15:30:28.272Z" agent="5.0 (Macintosh; Intel Mac OS X 10_15_7) AppleWebKit/537.36 (KHTML, like Gecko) Chrome/96.0.4664.110 Safari/537.36" etag="oMBCb4y6xZyhQS1_l7Xt" version="16.0.0" type="github">
  <diagram id="CrPLXHKGv5vuOg0bjpn2" name="第 1 页">
    <mxGraphModel dx="1088" dy="762" grid="0" gridSize="10" guides="1" tooltips="1" connect="1" arrows="1" fold="1" page="1" pageScale="1" pageWidth="1169" pageHeight="1654" background="#000000" math="0" shadow="0">
      <root>
        <mxCell id="0" />
        <mxCell id="1" parent="0" />
        <mxCell id="4qj5eSIxcOrG1gJ_vDVM-25" value="" style="group" vertex="1" connectable="0" parent="1">
          <mxGeometry x="118" y="189.5" width="944" height="184" as="geometry" />
        </mxCell>
        <mxCell id="4qj5eSIxcOrG1gJ_vDVM-8" value="" style="group" vertex="1" connectable="0" parent="4qj5eSIxcOrG1gJ_vDVM-25">
          <mxGeometry width="944" height="56.31216526396327" as="geometry" />
        </mxCell>
        <mxCell id="4qj5eSIxcOrG1gJ_vDVM-1" value="&lt;font color=&quot;#ffffff&quot;&gt;&lt;span style=&quot;font-size: 41px&quot;&gt;CRC&lt;/span&gt;&lt;/font&gt;" style="rounded=0;whiteSpace=wrap;html=1;dashed=1;strokeWidth=2;strokeColor=#FFFFFF;fillColor=none;" vertex="1" parent="4qj5eSIxcOrG1gJ_vDVM-8">
          <mxGeometry width="133.02713987473905" height="56.31216526396327" as="geometry" />
        </mxCell>
        <mxCell id="4qj5eSIxcOrG1gJ_vDVM-3" style="edgeStyle=orthogonalEdgeStyle;rounded=0;orthogonalLoop=1;jettySize=auto;html=1;fontSize=41;fontColor=#FFFFFF;" edge="1" parent="4qj5eSIxcOrG1gJ_vDVM-8" source="4qj5eSIxcOrG1gJ_vDVM-2">
          <mxGeometry relative="1" as="geometry">
            <mxPoint x="294.215580705417" y="28.156082631981636" as="targetPoint" />
          </mxGeometry>
        </mxCell>
        <mxCell id="4qj5eSIxcOrG1gJ_vDVM-2" value="&lt;font color=&quot;#ffffff&quot;&gt;&lt;span style=&quot;font-size: 41px&quot;&gt;TSTAMP&lt;/span&gt;&lt;/font&gt;" style="rounded=0;whiteSpace=wrap;html=1;dashed=1;strokeWidth=2;strokeColor=#FFFFFF;fillColor=none;" vertex="1" parent="4qj5eSIxcOrG1gJ_vDVM-8">
          <mxGeometry x="133.02713987473905" width="196.09185803757828" height="56.31216526396327" as="geometry" />
        </mxCell>
        <mxCell id="4qj5eSIxcOrG1gJ_vDVM-4" value="&lt;font color=&quot;#ffffff&quot;&gt;&lt;span style=&quot;font-size: 41px&quot;&gt;KSZ&lt;/span&gt;&lt;/font&gt;" style="rounded=0;whiteSpace=wrap;html=1;dashed=1;strokeWidth=2;strokeColor=#FFFFFF;fillColor=none;" vertex="1" parent="4qj5eSIxcOrG1gJ_vDVM-8">
          <mxGeometry x="329.11899791231735" width="133.02713987473905" height="56.31216526396327" as="geometry" />
        </mxCell>
        <mxCell id="4qj5eSIxcOrG1gJ_vDVM-5" value="&lt;font color=&quot;#ffffff&quot;&gt;&lt;span style=&quot;font-size: 41px&quot;&gt;VSZ&lt;/span&gt;&lt;/font&gt;" style="rounded=0;whiteSpace=wrap;html=1;dashed=1;strokeWidth=2;strokeColor=#FFFFFF;fillColor=none;" vertex="1" parent="4qj5eSIxcOrG1gJ_vDVM-8">
          <mxGeometry x="464.1169102296451" width="133.02713987473905" height="56.31216526396327" as="geometry" />
        </mxCell>
        <mxCell id="4qj5eSIxcOrG1gJ_vDVM-6" value="&lt;font color=&quot;#ffffff&quot;&gt;&lt;span style=&quot;font-size: 41px&quot;&gt;KEY&lt;/span&gt;&lt;/font&gt;" style="rounded=0;whiteSpace=wrap;html=1;dashed=1;strokeWidth=2;strokeColor=#FFFFFF;fillColor=none;" vertex="1" parent="4qj5eSIxcOrG1gJ_vDVM-8">
          <mxGeometry x="597.1440501043842" width="133.02713987473905" height="56.31216526396327" as="geometry" />
        </mxCell>
        <mxCell id="4qj5eSIxcOrG1gJ_vDVM-7" value="&lt;font color=&quot;#ffffff&quot;&gt;&lt;span style=&quot;font-size: 41px&quot;&gt;VALUE&lt;/span&gt;&lt;/font&gt;" style="rounded=0;whiteSpace=wrap;html=1;dashed=1;strokeWidth=2;strokeColor=#FFFFFF;fillColor=none;" vertex="1" parent="4qj5eSIxcOrG1gJ_vDVM-8">
          <mxGeometry x="730.1711899791231" width="213.82881002087683" height="56.31216526396327" as="geometry" />
        </mxCell>
        <mxCell id="4qj5eSIxcOrG1gJ_vDVM-9" value="" style="group" vertex="1" connectable="0" parent="4qj5eSIxcOrG1gJ_vDVM-25">
          <mxGeometry y="63.86738077021169" width="944" height="56.31216526396327" as="geometry" />
        </mxCell>
        <mxCell id="4qj5eSIxcOrG1gJ_vDVM-10" value="&lt;font color=&quot;#ffffff&quot;&gt;&lt;span style=&quot;font-size: 41px&quot;&gt;CRC&lt;/span&gt;&lt;/font&gt;" style="rounded=0;whiteSpace=wrap;html=1;dashed=1;strokeWidth=2;strokeColor=#FFFFFF;fillColor=none;" vertex="1" parent="4qj5eSIxcOrG1gJ_vDVM-9">
          <mxGeometry width="133.02713987473905" height="56.31216526396327" as="geometry" />
        </mxCell>
        <mxCell id="4qj5eSIxcOrG1gJ_vDVM-11" style="edgeStyle=orthogonalEdgeStyle;rounded=0;orthogonalLoop=1;jettySize=auto;html=1;fontSize=41;fontColor=#FFFFFF;" edge="1" parent="4qj5eSIxcOrG1gJ_vDVM-9" source="4qj5eSIxcOrG1gJ_vDVM-12">
          <mxGeometry relative="1" as="geometry">
            <mxPoint x="294.215580705417" y="28.156082631981636" as="targetPoint" />
          </mxGeometry>
        </mxCell>
        <mxCell id="4qj5eSIxcOrG1gJ_vDVM-12" value="&lt;font color=&quot;#ffffff&quot;&gt;&lt;span style=&quot;font-size: 41px&quot;&gt;TSTAMP&lt;/span&gt;&lt;/font&gt;" style="rounded=0;whiteSpace=wrap;html=1;dashed=1;strokeWidth=2;strokeColor=#FFFFFF;fillColor=none;" vertex="1" parent="4qj5eSIxcOrG1gJ_vDVM-9">
          <mxGeometry x="133.02713987473905" width="196.09185803757828" height="56.31216526396327" as="geometry" />
        </mxCell>
        <mxCell id="4qj5eSIxcOrG1gJ_vDVM-13" value="&lt;font color=&quot;#ffffff&quot;&gt;&lt;span style=&quot;font-size: 41px&quot;&gt;KSZ&lt;/span&gt;&lt;/font&gt;" style="rounded=0;whiteSpace=wrap;html=1;dashed=1;strokeWidth=2;strokeColor=#FFFFFF;fillColor=none;" vertex="1" parent="4qj5eSIxcOrG1gJ_vDVM-9">
          <mxGeometry x="329.11899791231735" width="133.02713987473905" height="56.31216526396327" as="geometry" />
        </mxCell>
        <mxCell id="4qj5eSIxcOrG1gJ_vDVM-14" value="&lt;font color=&quot;#ffffff&quot;&gt;&lt;span style=&quot;font-size: 41px&quot;&gt;VSZ&lt;/span&gt;&lt;/font&gt;" style="rounded=0;whiteSpace=wrap;html=1;dashed=1;strokeWidth=2;strokeColor=#FFFFFF;fillColor=none;" vertex="1" parent="4qj5eSIxcOrG1gJ_vDVM-9">
          <mxGeometry x="464.1169102296451" width="133.02713987473905" height="56.31216526396327" as="geometry" />
        </mxCell>
        <mxCell id="4qj5eSIxcOrG1gJ_vDVM-15" value="&lt;font color=&quot;#ffffff&quot;&gt;&lt;span style=&quot;font-size: 41px&quot;&gt;KEY&lt;/span&gt;&lt;/font&gt;" style="rounded=0;whiteSpace=wrap;html=1;dashed=1;strokeWidth=2;strokeColor=#FFFFFF;fillColor=none;" vertex="1" parent="4qj5eSIxcOrG1gJ_vDVM-9">
          <mxGeometry x="597.1440501043842" width="133.02713987473905" height="56.31216526396327" as="geometry" />
        </mxCell>
        <mxCell id="4qj5eSIxcOrG1gJ_vDVM-16" value="&lt;font color=&quot;#ffffff&quot;&gt;&lt;span style=&quot;font-size: 41px&quot;&gt;VALUE&lt;/span&gt;&lt;/font&gt;" style="rounded=0;whiteSpace=wrap;html=1;dashed=1;strokeWidth=2;strokeColor=#FFFFFF;fillColor=none;" vertex="1" parent="4qj5eSIxcOrG1gJ_vDVM-9">
          <mxGeometry x="730.1711899791231" width="213.82881002087683" height="56.31216526396327" as="geometry" />
        </mxCell>
        <mxCell id="4qj5eSIxcOrG1gJ_vDVM-17" value="" style="group" vertex="1" connectable="0" parent="4qj5eSIxcOrG1gJ_vDVM-25">
          <mxGeometry y="127.68783473603673" width="944" height="56.31216526396327" as="geometry" />
        </mxCell>
        <mxCell id="4qj5eSIxcOrG1gJ_vDVM-18" value="&lt;font color=&quot;#ffffff&quot;&gt;&lt;span style=&quot;font-size: 41px&quot;&gt;CRC&lt;/span&gt;&lt;/font&gt;" style="rounded=0;whiteSpace=wrap;html=1;dashed=1;strokeWidth=2;strokeColor=#FFFFFF;fillColor=none;" vertex="1" parent="4qj5eSIxcOrG1gJ_vDVM-17">
          <mxGeometry width="133.02713987473905" height="56.31216526396327" as="geometry" />
        </mxCell>
        <mxCell id="4qj5eSIxcOrG1gJ_vDVM-19" style="edgeStyle=orthogonalEdgeStyle;rounded=0;orthogonalLoop=1;jettySize=auto;html=1;fontSize=41;fontColor=#FFFFFF;" edge="1" parent="4qj5eSIxcOrG1gJ_vDVM-17" source="4qj5eSIxcOrG1gJ_vDVM-20">
          <mxGeometry relative="1" as="geometry">
            <mxPoint x="294.215580705417" y="28.156082631981636" as="targetPoint" />
          </mxGeometry>
        </mxCell>
        <mxCell id="4qj5eSIxcOrG1gJ_vDVM-20" value="&lt;font color=&quot;#ffffff&quot;&gt;&lt;span style=&quot;font-size: 41px&quot;&gt;TSTAMP&lt;/span&gt;&lt;/font&gt;" style="rounded=0;whiteSpace=wrap;html=1;dashed=1;strokeWidth=2;strokeColor=#FFFFFF;fillColor=none;" vertex="1" parent="4qj5eSIxcOrG1gJ_vDVM-17">
          <mxGeometry x="133.02713987473905" width="196.09185803757828" height="56.31216526396327" as="geometry" />
        </mxCell>
        <mxCell id="4qj5eSIxcOrG1gJ_vDVM-21" value="&lt;font color=&quot;#ffffff&quot;&gt;&lt;span style=&quot;font-size: 41px&quot;&gt;KSZ&lt;/span&gt;&lt;/font&gt;" style="rounded=0;whiteSpace=wrap;html=1;dashed=1;strokeWidth=2;strokeColor=#FFFFFF;fillColor=none;" vertex="1" parent="4qj5eSIxcOrG1gJ_vDVM-17">
          <mxGeometry x="329.11899791231735" width="133.02713987473905" height="56.31216526396327" as="geometry" />
        </mxCell>
        <mxCell id="4qj5eSIxcOrG1gJ_vDVM-22" value="&lt;font color=&quot;#ffffff&quot;&gt;&lt;span style=&quot;font-size: 41px&quot;&gt;VSZ&lt;/span&gt;&lt;/font&gt;" style="rounded=0;whiteSpace=wrap;html=1;dashed=1;strokeWidth=2;strokeColor=#FFFFFF;fillColor=none;" vertex="1" parent="4qj5eSIxcOrG1gJ_vDVM-17">
          <mxGeometry x="464.1169102296451" width="133.02713987473905" height="56.31216526396327" as="geometry" />
        </mxCell>
        <mxCell id="4qj5eSIxcOrG1gJ_vDVM-23" value="&lt;font color=&quot;#ffffff&quot;&gt;&lt;span style=&quot;font-size: 41px&quot;&gt;KEY&lt;/span&gt;&lt;/font&gt;" style="rounded=0;whiteSpace=wrap;html=1;dashed=1;strokeWidth=2;strokeColor=#FFFFFF;fillColor=none;" vertex="1" parent="4qj5eSIxcOrG1gJ_vDVM-17">
          <mxGeometry x="597.1440501043842" width="133.02713987473905" height="56.31216526396327" as="geometry" />
        </mxCell>
        <mxCell id="4qj5eSIxcOrG1gJ_vDVM-24" value="&lt;font color=&quot;#ffffff&quot;&gt;&lt;span style=&quot;font-size: 41px&quot;&gt;VALUE&lt;/span&gt;&lt;/font&gt;" style="rounded=0;whiteSpace=wrap;html=1;dashed=1;strokeWidth=2;strokeColor=#FFFFFF;fillColor=none;" vertex="1" parent="4qj5eSIxcOrG1gJ_vDVM-17">
          <mxGeometry x="730.1711899791231" width="213.82881002087683" height="56.31216526396327" as="geometry" />
        </mxCell>
        <mxCell id="4qj5eSIxcOrG1gJ_vDVM-28" value="" style="shape=curlyBracket;whiteSpace=wrap;html=1;rounded=1;dashed=1;fontSize=41;fontColor=#FFFFFF;strokeColor=#FF3333;strokeWidth=2;fillColor=none;rotation=-90;" vertex="1" parent="1">
          <mxGeometry x="171.83999999999997" y="328.66" width="25.32" height="131" as="geometry" />
        </mxCell>
        <mxCell id="4qj5eSIxcOrG1gJ_vDVM-29" value="&lt;font color=&quot;#ff3333&quot; style=&quot;font-size: 24px&quot;&gt;Cyclic redundancy check&lt;/font&gt;" style="text;html=1;align=center;verticalAlign=middle;resizable=0;points=[];autosize=1;strokeColor=none;fillColor=none;fontSize=41;fontColor=#FFFFFF;" vertex="1" parent="1">
          <mxGeometry x="47" y="387.5" width="275" height="60" as="geometry" />
        </mxCell>
        <mxCell id="4qj5eSIxcOrG1gJ_vDVM-31" value="" style="shape=curlyBracket;whiteSpace=wrap;html=1;rounded=1;dashed=1;labelBackgroundColor=#190033;fontSize=19;fontColor=#FF3333;strokeColor=#FF3333;strokeWidth=2;fillColor=none;rotation=90;" vertex="1" parent="1">
          <mxGeometry x="338.5" y="73" width="20" height="195" as="geometry" />
        </mxCell>
        <mxCell id="4qj5eSIxcOrG1gJ_vDVM-32" value="&lt;font style=&quot;font-size: 24px&quot;&gt;Timestamp&lt;/font&gt;" style="text;html=1;align=center;verticalAlign=middle;resizable=0;points=[];autosize=1;strokeColor=none;fillColor=none;fontSize=19;fontColor=#FF3333;" vertex="1" parent="1">
          <mxGeometry x="284.5" y="121.5" width="128" height="28" as="geometry" />
        </mxCell>
        <mxCell id="4qj5eSIxcOrG1gJ_vDVM-33" value="" style="shape=curlyBracket;whiteSpace=wrap;html=1;rounded=1;dashed=1;labelBackgroundColor=#190033;fontSize=24;fontColor=#FF3333;strokeColor=#FF3333;strokeWidth=2;fillColor=none;rotation=-90;" vertex="1" parent="1">
          <mxGeometry x="504" y="324.5" width="20" height="136" as="geometry" />
        </mxCell>
        <mxCell id="4qj5eSIxcOrG1gJ_vDVM-34" value="Key size" style="text;html=1;align=center;verticalAlign=middle;resizable=0;points=[];autosize=1;strokeColor=none;fillColor=none;fontSize=24;fontColor=#FF3333;" vertex="1" parent="1">
          <mxGeometry x="462" y="407.5" width="101" height="33" as="geometry" />
        </mxCell>
        <mxCell id="4qj5eSIxcOrG1gJ_vDVM-35" value="" style="shape=curlyBracket;whiteSpace=wrap;html=1;rounded=1;dashed=1;labelBackgroundColor=#190033;fontSize=24;fontColor=#FF3333;strokeColor=#FF3333;strokeWidth=2;fillColor=none;rotation=90;" vertex="1" parent="1">
          <mxGeometry x="638" y="103.25" width="20" height="134.5" as="geometry" />
        </mxCell>
        <mxCell id="4qj5eSIxcOrG1gJ_vDVM-36" value="Value size" style="text;html=1;align=center;verticalAlign=middle;resizable=0;points=[];autosize=1;strokeColor=none;fillColor=none;fontSize=24;fontColor=#FF3333;" vertex="1" parent="1">
          <mxGeometry x="588.5" y="116.5" width="119" height="33" as="geometry" />
        </mxCell>
        <mxCell id="4qj5eSIxcOrG1gJ_vDVM-37" value="" style="shape=curlyBracket;whiteSpace=wrap;html=1;rounded=1;dashed=1;labelBackgroundColor=#190033;fontSize=24;strokeColor=#FF3333;strokeWidth=2;fillColor=none;rotation=-90;fontColor=#ffffff;" vertex="1" parent="1">
          <mxGeometry x="877.67" y="222.49" width="20" height="343.34" as="geometry" />
        </mxCell>
        <mxCell id="4qj5eSIxcOrG1gJ_vDVM-38" value="Data&amp;nbsp;" style="text;html=1;align=center;verticalAlign=middle;resizable=0;points=[];autosize=1;strokeColor=none;fillColor=none;fontSize=24;fontColor=#FF3333;" vertex="1" parent="1">
          <mxGeometry x="856" y="414.5" width="67" height="33" as="geometry" />
        </mxCell>
      </root>
    </mxGraphModel>
  </diagram>
</mxfile>
